# xmcd
#
# Track frame offsets:
#	150
#	13088
#	26625
#	39216
#	57220
#	69794
#	81082
#	98013
#	116607
#	130421
#	144758
#	158560
#	183445
#	198650
#	211039
#	223276
#	235661
#	248340
#	258941
#	270092
#
# Disc length: 3777 seconds
#
# Revision: 0
# Processed by: cddbd v1.5.1PL0 Copyright (c) Steve Scherf et al.
# Submitted via: EasyCDDAExtractor 8.0.2.1
#
DISCID=fe0ebf14
DTITLE=Various Artist - Best Of Motown Vol. 4 Cd 1
DYEAR=2004
DGENRE=Soul
TTITLE0=Stevie Wonder - A Place In The Sun
TTITLE1=Marvin Gaye - Aint That Peculiar
TTITLE2=The Supremes - You Keep Me Hangin On
TTITLE3=Commodores - Lady (You Bring Me Up)
TTITLE4=Marvin Gaye and Tammi Terrell - You Aint Livin Till You're Lov
TTITLE5=The Velvelettes - Needle In A Haystack
TTITLE6=Gladys Knight and The Pips - For Once In My Life
TTITLE7=The Temptations - Ball Of Confusion (Thats What
TTITLE8=Martha Reeves and The Vandellas - I Say A Little Prayer
TTITLE9=Jackson 5 - Mama's Pearl
TTITLE10=Four Tops - Bernadette
TTITLE11=Lionel Richie - Penny Lover
TTITLE12=Diana Ross - Theme From Mahogany
TTITLE13=Smokey Robinson and The Miracles - Walk On By
TTITLE14=Underdogs - The Way You Do The Things You
TTITLE15=Jimmy Ruffin - Too Busy Thinking About My Bab
TTITLE16=Mary Wells - I Only Have Eyes For You
TTITLE17=Barbara Randolph - Can I Get A Witness
TTITLE18=Junior Walker And The All Star - What Does It Take (To Win Your
TTITLE19=Contours - I Like Everything About You
EXTD=
EXTT0=
EXTT1=
EXTT2=
EXTT3=
EXTT4=
EXTT5=
EXTT6=
EXTT7=
EXTT8=
EXTT9=
EXTT10=
EXTT11=
EXTT12=
EXTT13=
EXTT14=
EXTT15=
EXTT16=
EXTT17=
EXTT18=
EXTT19=
PLAYORDER=
